<svg width="26" height="26" viewBox="0 0 26 26" fill="none" xmlns="http://www.w3.org/2000/svg">
<g clip-path="url(#clip0_127_998)">
<path d="M13 10.6362V15.6708H19.9963C19.6891 17.2899 18.7672 18.6608 17.3845 19.5826L21.6036 22.8563C24.0617 20.5873 25.4799 17.2545 25.4799 13.2955C25.4799 12.3736 25.3972 11.4872 25.2435 10.6364L13 10.6362Z" fill="white"/>
<path d="M5.71433 15.4744L4.76277 16.2028L1.39453 18.8264C3.53362 23.0691 7.91784 26 12.9996 26C16.5095 26 19.4522 24.8418 21.6032 22.8564L17.3841 19.5828C16.2259 20.3627 14.7486 20.8355 12.9996 20.8355C9.61963 20.8355 6.7479 18.5546 5.71964 15.4819L5.71433 15.4744Z" fill="white"/>
<path d="M1.39444 7.17358C0.508129 8.9226 0 10.8963 0 12.9999C0 15.1035 0.508129 17.0771 1.39444 18.8262C1.39444 18.8379 5.71997 15.4698 5.71997 15.4698C5.45997 14.6898 5.30629 13.8626 5.30629 12.9997C5.30629 12.1369 5.45997 11.3097 5.71997 10.5297L1.39444 7.17358Z" fill="white"/>
<path d="M12.9999 5.17636C14.9145 5.17636 16.6162 5.83816 17.9753 7.11454L21.698 3.39186C19.4407 1.28826 16.5099 0 12.9999 0C7.9181 0 3.53362 2.91909 1.39453 7.17364L5.71993 10.53C6.74805 7.45725 9.6199 5.17636 12.9999 5.17636Z" fill="white"/>
</g>
<defs>
<clipPath id="clip0_127_998">
<rect width="26" height="26" fill="white"/>
</clipPath>
</defs>
</svg>
