<?xml version="1.0" encoding="UTF-8"?>
<svg id="Layer_2" data-name="Layer 2" xmlns="http://www.w3.org/2000/svg" viewBox="0 0 168.98 76.43">
  <defs>
    <style>
      .cls-1 {
        fill: #fff;
      }

      .cls-2 {
        fill: #f47028;
      }
    </style>
  </defs>
  <g id="Layer_1-2" data-name="Layer 1">
    <g>
      <g>
        <path class="cls-1" d="M27.8,34.25h-8.69v-5.29h-.18c-1.26,3.65-4.41,5.77-8.62,5.77-6.05,0-10.31-3.93-10.31-10.53V6.2h8.92v16.03c0,3.4,2.02,5.22,4.94,5.22s4.99-2.17,4.99-5.42V6.2h8.95v28.05Z"/>
        <path class="cls-1" d="M30.1,6.2h8.67v5.27h.18c1.01-3.73,3.3-5.64,6.63-5.64.83,0,1.66.18,2.27.38v6.6c-.76-.33-1.86-.53-2.87-.53-3.83,0-5.95,3.24-5.95,7.17v14.82h-8.92V6.2Z"/>
        <path class="cls-1" d="M61.83,0v6.2h5.06v6.6h-5.06v11.97c0,1.97,1.06,2.95,3.25,2.95.73,0,1.29-.05,1.81-.13v6.35c-.88.2-2.19.35-3.93.35-7.21,0-10.05-2.24-10.05-7.74v-13.76h-3.76v-6.6h3.76V0h8.92Z"/>
        <path class="cls-1" d="M71.66,44.45v-6.75c.13.03,1.44.03,1.56.03,2.9,0,4.59-.81,4.89-2.47l.13-.78-9.58-28.27h9.85l5.17,21.29h.18l5.17-21.29h9.42l-9.02,28c-2.39,7.48-6.48,10.31-14.52,10.31-.13,0-3.13-.03-3.25-.05Z"/>
        <path class="cls-1" d="M158.54,25.43c-.86,5.75-6.02,9.42-13.28,9.42-8.87,0-14.21-5.47-14.21-14.49s5.39-14.77,13.91-14.77,13.76,5.49,13.76,14.04v2.55h-18.98v.55c0,3.43,2.29,5.77,5.65,5.77,2.47,0,4.41-1.16,5.09-3.07h8.06ZM139.84,17.06h10.43c-.18-3.1-2.22-5.12-5.19-5.12s-5.01,2.12-5.24,5.12Z"/>
        <path class="cls-2" d="M159.63,29.89c0-2.6,2.07-4.69,4.66-4.69s4.69,2.09,4.69,4.69-2.07,4.69-4.69,4.69-4.66-2.09-4.66-4.69Z"/>
      </g>
      <g>
        <path class="cls-1" d="M6.44,47.78h8.67v5.39h.18c1.11-3.6,4.23-5.87,8.01-5.87,4.16,0,7.01,2.14,7.81,5.95h.18c1.11-3.63,4.49-5.95,8.67-5.95,5.47,0,9.2,3.83,9.2,9.53v19h-8.92v-16.73c0-2.97-1.39-4.54-4.03-4.54s-4.13,1.81-4.13,4.64v16.63h-8.52v-16.86c0-2.82-1.46-4.41-4.03-4.41s-4.16,1.86-4.16,4.69v16.58H6.44v-28.05Z"/>
        <path class="cls-1" d="M78.1,67.01c-.86,5.75-6.02,9.42-13.28,9.42-8.87,0-14.21-5.47-14.21-14.49s5.39-14.77,13.91-14.77,13.76,5.49,13.76,14.04v2.55h-18.98v.56c0,3.43,2.29,5.77,5.64,5.77,2.47,0,4.41-1.16,5.09-3.08h8.06ZM59.4,58.64h10.43c-.18-3.1-2.22-5.12-5.19-5.12s-5.01,2.12-5.24,5.12Z"/>
        <path class="cls-1" d="M118.44,5.82c-4.01,0-7.13,1.99-8.54,5.29h-.18v-4.91h-8.87v36.59h.02v9.9h-.18c-1.23-3.13-4.33-5.29-8.42-5.29-6.98,0-11.29,5.44-11.29,14.34s4.26,14.47,11.21,14.47c4.16,0,7.41-2.19,8.57-5.19h.15v4.81h8.9l-.04-38.18.06-8.19h.11c1.41,3.23,4.51,5.17,8.59,5.17,7,0,11.14-5.32,11.14-14.41s-4.16-14.39-11.24-14.39ZM95.52,69.17c-3.35,0-5.42-2.8-5.42-7.38s2.09-7.36,5.42-7.36,5.39,2.85,5.39,7.38-2.07,7.36-5.39,7.36ZM115.14,27.59c-3.28,0-5.39-2.85-5.39-7.36s2.12-7.38,5.39-7.38,5.39,2.9,5.39,7.36-2.12,7.38-5.39,7.38Z"/>
        <path class="cls-1" d="M112.92,41.05c0-2.52,2.07-4.41,4.59-4.41s4.61,1.89,4.61,4.41-2.07,4.41-4.61,4.41-4.59-1.86-4.59-4.41ZM113.05,47.78h8.95v28.05h-8.95v-28.05Z"/>
        <path class="cls-1" d="M125.29,67.71c0-5.24,4.03-8.14,11.37-8.59l6.58-.4v-1.61c0-2.29-1.64-3.53-4.16-3.53s-4.06,1.28-4.31,3.02h-8.04c.23-5.67,5.19-9.42,12.78-9.42s12.45,3.81,12.45,9.45v19.2h-8.67v-4.03h-.18c-1.51,2.82-4.94,4.41-8.34,4.41-5.27,0-9.48-3.45-9.48-8.49ZM143.23,65.72v-1.94l-5.17.35c-2.55.18-3.93,1.26-3.93,2.98s1.49,2.9,3.78,2.9c2.87,0,5.32-1.71,5.32-4.28Z"/>
      </g>
    </g>
  </g>
</svg>